# xmcd
#
# Track frame offsets:
#	150
#	16004
#	30290
#	46013
#	63627
#	80715
#	92998
#	106054
#	120937
#	139228
#
# Disc length: 2051 seconds
#
# Revision: 0
# Processed by: cddbd v1.5.2PL0 Copyright (c) Steve Scherf et al.
# Submitted via: EasyCDDAExtractor 16.0.6.1
#
DISCID=7208010a
DTITLE=PURAS CON BANDA
DYEAR=2012
DGENRE=BANDA
TTITLE0=JOAN SEBASTIAN - EL PEOR DE TUS ANTOJOS
TTITLE1=ANTONIO AGUILAR - ARBOLES DE LA BARRANCA
TTITLE2=BANDA LA PIRINOLA - AVENTURERO Y LOCO
TTITLE3=PANCHO BARRAZA - MI ENEMIGO EL AMOR
TTITLE4=CUISILLOS - MIL HERIDAS
TTITLE5=LABERINTO - CARGA LADEADA
TTITLE6=FELINOS - EL AVENTURERO
TTITLE7=CHALINO SANCHEZ Y BANDA BRAVA - PRENDA DEL ALMA
TTITLE8=MI BANDA EL MEXICANO - NO BAILES DE CABALLITO
TTITLE9=JOAN SEBASTIAN - AFORTUNADO
EXTD=
EXTT0=
EXTT1=
EXTT2=
EXTT3=
EXTT4=
EXTT5=
EXTT6=
EXTT7=
EXTT8=
EXTT9=
PLAYORDER=
